<?xml version="1.0" encoding="UTF-8" standalone="no"?>
<!-- Created with Inkscape (http://www.inkscape.org/) -->

<svg
   version="1.1"
   id="svg9"
   xml:space="preserve"
   width="682.66669"
   height="682.66669"
   viewBox="0 0 682.66669 682.66669"
   xmlns="http://www.w3.org/2000/svg"
   xmlns:svg="http://www.w3.org/2000/svg"><defs
     id="defs13"><clipPath
       clipPathUnits="userSpaceOnUse"
       id="clipPath23"><path
         d="M 0,512 H 512 V 0 H 0 Z"
         id="path21" /></clipPath></defs><g
     id="g15"
     transform="matrix(1.3333333,0,0,-1.3333333,0,682.66667)"><g
       id="g17"><g
         id="g19"
         clip-path="url(#clipPath23)"><g
           id="g25"
           transform="translate(438.9048,500.6216)"><path
             d="m 0,0 h -276.72 c -36.094,0 -65.626,-29.532 -65.626,-65.625 v -22.331 h 250.317 c 36.094,0 65.625,-29.531 65.625,-65.625 V -317.189 H 0 c 36.094,0 65.625,29.531 65.625,65.625 V -65.625 C 65.625,-29.532 36.094,0 0,0"
             style="fill:#6c7ed6;fill-opacity:1;fill-rule:nonzero;stroke:none"
             id="path27" /></g><g
           id="g29"
           transform="translate(392.3759,415.6665)"><path
             d="m 0,0 h -276.72 c -6.636,0 -13.047,-1.006 -19.097,-2.86 V -3 H -45.5 c 36.094,0 65.625,-29.532 65.625,-65.625 v -163.609 h 26.404 c 6.636,0 13.047,1.006 19.096,2.859 v 163.75 C 65.625,-29.532 36.094,0 0,0"
             style="fill:#4f67d2;fill-opacity:1;fill-rule:nonzero;stroke:none"
             id="path31" /></g><g
           id="g33"
           transform="translate(349.8759,415.666)"><path
             d="m 0,0 h -276.72 c -36.094,0 -65.626,-29.531 -65.626,-65.625 v -185.938 c 0,-36.095 29.532,-65.626 65.626,-65.626 h 166.083 c 7.12,0 12.435,-6.625 10.807,-13.557 -4.404,-18.751 -11.144,-38.581 -21.107,-58.908 -4.475,-9.13 5.704,-18.41 14.349,-13.06 24.997,15.47 60.562,41.361 90.512,77.964 3.938,4.811 9.859,7.561 16.076,7.561 36.094,0 65.625,29.531 65.625,65.626 V -65.625 C 65.625,-29.531 36.094,0 0,0"
             style="fill:#60b8fe;fill-opacity:1;fill-rule:nonzero;stroke:none"
             id="path35" /></g><g
           id="g37"
           transform="translate(292.5459,84.9199)"><path
             d="m 0,0 c 1.628,6.932 -3.687,13.557 -10.807,13.557 h -42.5 c 7.12,0 12.435,-6.625 10.807,-13.557 -4.404,-18.751 -11.144,-38.581 -21.107,-58.908 -4.474,-9.13 5.704,-18.41 14.349,-13.06 9.591,5.935 20.739,13.411 32.528,22.431 C -9.128,-32.488 -3.725,-15.857 0,0"
             style="fill:#23a8fe;fill-opacity:1;fill-rule:nonzero;stroke:none"
             id="path39" /></g><g
           id="g41"
           transform="translate(50.0303,164.1025)"><path
             d="m 0,0 v 185.938 c 0,36.094 29.531,65.626 65.625,65.626 h -42.5 c -36.094,0 -65.625,-29.532 -65.625,-65.626 V 0 c 0,-36.094 29.531,-65.625 65.625,-65.625 h 42.5 C 29.531,-65.625 0,-36.094 0,0"
             style="fill:#23a8fe;fill-opacity:1;fill-rule:nonzero;stroke:none"
             id="path43" /></g><g
           id="g45"
           transform="translate(120.2754,251.7319)"><path
             d="m 0,0 c 0,-12.027 -9.75,-21.777 -21.777,-21.777 -12.027,0 -21.777,9.75 -21.777,21.777 0,12.027 9.75,21.776 21.777,21.776 C -9.75,21.776 0,12.027 0,0"
             style="fill:#dfebfa;fill-opacity:1;fill-rule:nonzero;stroke:none"
             id="path47" /></g><g
           id="g49"
           transform="translate(190.6123,251.7319)"><path
             d="m 0,0 c 0,-12.027 -9.75,-21.777 -21.777,-21.777 -12.027,0 -21.777,9.75 -21.777,21.777 0,12.027 9.75,21.776 21.777,21.776 C -9.75,21.776 0,12.027 0,0"
             style="fill:#dfebfa;fill-opacity:1;fill-rule:nonzero;stroke:none"
             id="path51" /></g><g
           id="g53"
           transform="translate(260.9492,251.7319)"><path
             d="m 0,0 c 0,-12.027 -9.75,-21.777 -21.777,-21.777 -12.027,0 -21.777,9.75 -21.777,21.777 0,12.027 9.75,21.776 21.777,21.776 C -9.75,21.776 0,12.027 0,0"
             style="fill:#dfebfa;fill-opacity:1;fill-rule:nonzero;stroke:none"
             id="path55" /></g><g
           id="g57"
           transform="translate(331.2861,251.7319)"><path
             d="m 0,0 c 0,-12.027 -9.75,-21.777 -21.777,-21.777 -12.027,0 -21.777,9.75 -21.777,21.777 0,12.027 9.75,21.776 21.777,21.776 C -9.75,21.776 0,12.027 0,0"
             style="fill:#dfebfa;fill-opacity:1;fill-rule:nonzero;stroke:none"
             id="path59" /></g><g
           id="g61"
           transform="translate(98.4985,251.7319)"><path
             d="M 0,0 C 0,8.059 4.381,15.09 10.888,18.856 7.685,20.71 3.968,21.777 0,21.777 c -12.027,0 -21.777,-9.75 -21.777,-21.777 0,-12.027 9.75,-21.777 21.777,-21.777 3.968,0 7.685,1.067 10.888,2.921 C 4.381,-15.09 0,-8.059 0,0"
             style="fill:#b1dbfc;fill-opacity:1;fill-rule:nonzero;stroke:none"
             id="path63" /></g><g
           id="g65"
           transform="translate(168.8354,251.7319)"><path
             d="M 0,0 C 0,8.059 4.381,15.09 10.888,18.856 7.685,20.71 3.968,21.777 0,21.777 c -12.027,0 -21.777,-9.75 -21.777,-21.777 0,-12.027 9.75,-21.777 21.777,-21.777 3.968,0 7.685,1.067 10.888,2.921 C 4.381,-15.09 0,-8.059 0,0"
             style="fill:#b1dbfc;fill-opacity:1;fill-rule:nonzero;stroke:none"
             id="path67" /></g><g
           id="g69"
           transform="translate(239.1723,251.7319)"><path
             d="M 0,0 C 0,8.059 4.381,15.09 10.888,18.856 7.685,20.71 3.968,21.777 0,21.777 c -12.027,0 -21.777,-9.75 -21.777,-21.777 0,-12.027 9.75,-21.777 21.777,-21.777 3.968,0 7.685,1.067 10.888,2.921 C 4.381,-15.09 0,-8.059 0,0"
             style="fill:#b1dbfc;fill-opacity:1;fill-rule:nonzero;stroke:none"
             id="path71" /></g><g
           id="g73"
           transform="translate(309.5092,251.7319)"><path
             d="M 0,0 C 0,8.059 4.381,15.09 10.888,18.856 7.685,20.71 3.968,21.777 0,21.777 c -12.027,0 -21.777,-9.75 -21.777,-21.777 0,-12.027 9.75,-21.777 21.777,-21.777 3.968,0 7.685,1.067 10.888,2.921 C 4.381,-15.09 0,-8.059 0,0"
             style="fill:#b1dbfc;fill-opacity:1;fill-rule:nonzero;stroke:none"
             id="path75" /></g><g
           id="g77"
           transform="translate(120.2451,251.7319)"><path
             d="m 0,0 c 0,-12.027 -9.75,-21.777 -21.777,-21.777 -12.027,0 -21.777,9.75 -21.777,21.777 0,12.027 9.75,21.776 21.777,21.776 C -9.75,21.776 0,12.027 0,0 Z"
             style="fill:none;stroke:#020202;stroke-width:15;stroke-linecap:round;stroke-linejoin:round;stroke-miterlimit:10;stroke-dasharray:none;stroke-opacity:1"
             id="path79" /></g><g
           id="g81"
           transform="translate(190.582,251.7319)"><path
             d="m 0,0 c 0,-12.027 -9.75,-21.777 -21.777,-21.777 -12.027,0 -21.777,9.75 -21.777,21.777 0,12.027 9.75,21.776 21.777,21.776 C -9.75,21.776 0,12.027 0,0 Z"
             style="fill:none;stroke:#020202;stroke-width:15;stroke-linecap:round;stroke-linejoin:round;stroke-miterlimit:10;stroke-dasharray:none;stroke-opacity:1"
             id="path83" /></g><g
           id="g85"
           transform="translate(260.9189,251.7319)"><path
             d="m 0,0 c 0,-12.027 -9.75,-21.777 -21.777,-21.777 -12.027,0 -21.777,9.75 -21.777,21.777 0,12.027 9.75,21.776 21.777,21.776 C -9.75,21.776 0,12.027 0,0 Z"
             style="fill:none;stroke:#020202;stroke-width:15;stroke-linecap:round;stroke-linejoin:round;stroke-miterlimit:10;stroke-dasharray:none;stroke-opacity:1"
             id="path87" /></g><g
           id="g89"
           transform="translate(331.2558,251.7319)"><path
             d="m 0,0 c 0,-12.027 -9.75,-21.777 -21.777,-21.777 -12.027,0 -21.777,9.75 -21.777,21.777 0,12.027 9.75,21.776 21.777,21.776 C -9.75,21.776 0,12.027 0,0 Z"
             style="fill:none;stroke:#020202;stroke-width:15;stroke-linecap:round;stroke-linejoin:round;stroke-miterlimit:10;stroke-dasharray:none;stroke-opacity:1"
             id="path91" /></g><g
           id="g93"
           transform="translate(415.4712,183.4321)"><path
             d="m 0,0 h 23.403 c 36.095,0 65.626,29.532 65.626,65.625 v 75.47"
             style="fill:none;stroke:#020202;stroke-width:15;stroke-linecap:round;stroke-linejoin:round;stroke-miterlimit:10;stroke-dasharray:none;stroke-opacity:1"
             id="path95" /></g><g
           id="g97"
           transform="translate(504.5,359.5269)"><path
             d="m 0,0 v 75.469 c 0,36.094 -29.531,65.626 -65.625,65.626 h -276.721 c -36.093,0 -65.625,-29.532 -65.625,-65.626 V 56.14"
             style="fill:none;stroke:#020202;stroke-width:15;stroke-linecap:round;stroke-linejoin:round;stroke-miterlimit:10;stroke-dasharray:none;stroke-opacity:1"
             id="path99" /></g><g
           id="g101"
           transform="translate(186.3052,98.4771)"><path
             d="m 0,0 h 52.903 c 7.121,0 12.436,-6.625 10.807,-13.557 -4.404,-18.751 -11.144,-38.581 -21.106,-58.908 -4.475,-9.13 5.704,-18.41 14.349,-13.06 24.997,15.47 60.561,41.361 90.512,77.963 3.937,4.812 9.858,7.562 16.076,7.562 36.093,0 65.625,29.531 65.625,65.625 v 185.939 c 0,36.094 -29.532,65.625 -65.625,65.625 H -113.18 c -36.094,0 -65.625,-29.531 -65.625,-65.625 V 65.625 C -178.805,29.531 -149.274,0 -113.18,0 H -35"
             style="fill:none;stroke:#020202;stroke-width:15;stroke-linecap:round;stroke-linejoin:round;stroke-miterlimit:10;stroke-dasharray:none;stroke-opacity:1"
             id="path103" /></g></g></g></g></svg>
