<svg width="36" height="36" viewBox="0 0 36 36" fill="none" xmlns="http://www.w3.org/2000/svg">
<path d="M3.87001 28.5149L3.84001 28.5449C3.43501 27.6599 3.18001 26.6549 3.07501 25.5449C3.18001 26.6399 3.46501 27.6299 3.87001 28.5149Z" fill="#6B48F2"/>
<path d="M13.5 15.5699C15.4716 15.5699 17.07 13.9716 17.07 11.9999C17.07 10.0283 15.4716 8.42993 13.5 8.42993C11.5283 8.42993 9.92999 10.0283 9.92999 11.9999C9.92999 13.9716 11.5283 15.5699 13.5 15.5699Z" fill="#6B48F2"/>
<path d="M24.285 3H11.715C6.255 3 3 6.255 3 11.715V24.285C3 25.92 3.285 27.345 3.84 28.545C5.13 31.395 7.89 33 11.715 33H24.285C29.745 33 33 29.745 33 24.285V20.85V11.715C33 6.255 29.745 3 24.285 3ZM30.555 18.75C29.385 17.745 27.495 17.745 26.325 18.75L20.085 24.105C18.915 25.11 17.025 25.11 15.855 24.105L15.345 23.685C14.28 22.755 12.585 22.665 11.385 23.475L5.775 27.24C5.445 26.4 5.25 25.425 5.25 24.285V11.715C5.25 7.485 7.485 5.25 11.715 5.25H24.285C28.515 5.25 30.75 7.485 30.75 11.715V18.915L30.555 18.75Z" fill="#6B48F2"/>
</svg>
