<svg width="36" height="36" viewBox="0 0 36 36" fill="none" xmlns="http://www.w3.org/2000/svg">
<path d="M27.105 12.765L14.265 6.34496C5.64 2.02496 2.1 5.56496 6.42 14.19L7.725 16.8C8.1 17.565 8.1 18.45 7.725 19.215L6.42 21.81C2.1 30.435 5.625 33.975 14.265 29.655L27.105 23.235C32.865 20.355 32.865 15.645 27.105 12.765ZM22.26 19.125H14.16C13.545 19.125 13.035 18.615 13.035 18C13.035 17.385 13.545 16.875 14.16 16.875H22.26C22.875 16.875 23.385 17.385 23.385 18C23.385 18.615 22.875 19.125 22.26 19.125Z" fill="#6B48F2"/>
</svg>
